<svg width="25" height="18" viewBox="0 0 25 18" fill="none" xmlns="http://www.w3.org/2000/svg">
<g clip-path="url(#clip0_351_4409)">
<path fill-rule="evenodd" clip-rule="evenodd" d="M0.5 0H24.5V18H0.5V0Z" fill="#229E45"/>
<path fill-rule="evenodd" clip-rule="evenodd" d="M12.5526 16.35L23.8588 9.01127L12.4851 1.65002L1.14133 9.02627L12.5526 16.35Z" fill="#F8E509"/>
<path fill-rule="evenodd" clip-rule="evenodd" d="M17.48 9C17.48 11.6362 15.3388 13.7737 12.6951 13.7737C11.7503 13.7723 10.8272 13.4907 10.0425 12.9647C9.25772 12.4387 8.64655 11.6918 8.28621 10.8185C7.92587 9.94514 7.83255 8.98459 8.01804 8.05823C8.20353 7.13188 8.65951 6.28132 9.32833 5.61408C9.99714 4.94683 10.8488 4.49286 11.7756 4.30955C12.7023 4.12624 13.6627 4.22182 14.5351 4.58421C15.4076 4.9466 16.1531 5.55953 16.6772 6.34552C17.2014 7.13151 17.4808 8.05526 17.48 9Z" fill="#2B49A3"/>
<path fill-rule="evenodd" clip-rule="evenodd" d="M11.1238 11.8612L10.9738 11.775L10.8238 11.85L10.8576 11.6812L10.7376 11.5537L10.9063 11.535L10.9888 11.385L11.0601 11.5425L11.2251 11.5725L11.1013 11.685M14.3263 12.6712L14.1801 12.585L14.0301 12.66L14.0601 12.4912L13.9438 12.3675L14.1126 12.3487L14.1913 12.195L14.2663 12.3525L14.4313 12.3825L14.3038 12.4987M12.9463 11.3737L12.8188 11.2987L12.6876 11.3662L12.7176 11.22L12.6126 11.1112L12.7626 11.0962L12.8301 10.9612L12.8901 11.1L13.0363 11.1262L12.9238 11.2275M16.1863 10.9087L16.0588 10.8337L15.9276 10.9012L15.9576 10.755L15.8563 10.65L16.0026 10.635L16.0701 10.5037L16.1301 10.6387L16.2726 10.665L16.1638 10.7625M12.8901 9.93747L12.7401 9.85497L12.5901 9.92997L12.6201 9.75747L12.5038 9.63372L12.6726 9.61497L12.7513 9.46122L12.8263 9.61872L12.9913 9.64872L12.8638 9.76872M8.94131 8.45622L8.79131 8.37372L8.64131 8.44872L8.67881 8.27622L8.55506 8.15247L8.72756 8.13372L8.80256 7.97997L8.87756 8.13747L9.04256 8.16747L8.91881 8.28372M9.41756 10.4287L9.26756 10.3425L9.11756 10.4175L9.15131 10.2487L9.03131 10.125L9.20006 10.1025L9.27881 9.95247L9.35381 10.11L9.51881 10.14L9.39506 10.2562M14.3451 7.73247L14.2101 7.65747L14.0751 7.72497L14.1051 7.57497L14.0001 7.46247L14.1501 7.44372L14.2213 7.30872L14.2851 7.45122L14.4351 7.47747L14.3226 7.57872M14.0713 9.01497L13.9701 8.95497L13.8613 9.00747L13.8838 8.88747L13.8013 8.80122L13.9213 8.78622L13.9776 8.68122L14.0263 8.79372L14.1388 8.81247L14.0563 8.89497M8.72381 10.785L8.62256 10.7287L8.52131 10.7775L8.54381 10.665L8.46506 10.5825L8.57756 10.5675L8.63006 10.4662L8.67881 10.5712L8.79131 10.5937L8.70506 10.6687M16.2126 11.2425L16.1301 11.2012L16.0476 11.2387L16.0663 11.1525L16.0026 11.0925L16.0926 11.0812L16.1376 11.0062L16.1751 11.0812L16.2688 11.1L16.1976 11.1562" fill="#FFFFEF"/>
<path fill-rule="evenodd" clip-rule="evenodd" d="M8.72381 10.7851L8.62256 10.7288L8.52131 10.7776L8.54381 10.6651L8.46506 10.5826L8.57756 10.5676L8.63006 10.4663L8.67881 10.5713L8.79131 10.5938L8.70506 10.6688" fill="#FFFFEF"/>
<path fill-rule="evenodd" clip-rule="evenodd" d="M8.72381 10.785L8.62256 10.7287L8.52131 10.7775L8.54381 10.665L8.46506 10.5825L8.57756 10.5675L8.63006 10.4662L8.67881 10.5712L8.79131 10.5937L8.70506 10.6687M10.2913 10.7812L10.1938 10.7287L10.0926 10.7775L10.1151 10.665L10.0363 10.5825L10.1488 10.5675L10.2013 10.4662L10.2501 10.5712L10.3626 10.59L10.2763 10.6687M10.0963 11.3062L9.99881 11.25L9.89756 11.3025L9.92006 11.19L9.84131 11.1037L9.95381 11.0887L10.0063 10.9875L10.0551 11.0925L10.1676 11.115L10.0813 11.19M13.3588 10.3575L13.2613 10.2975L13.1563 10.35L13.1788 10.2375L13.1038 10.1512L13.2163 10.14L13.2688 10.0387L13.3138 10.1437L13.4263 10.1625L13.3438 10.2412M12.4026 10.3537L12.3013 10.2975L12.2001 10.35L12.2226 10.2375L12.1476 10.1512L12.2601 10.14L12.3126 10.035L12.3576 10.1437L12.4701 10.1625L12.3876 10.2412M9.80756 10.0237L9.74381 9.98622L9.68006 10.0162L9.69506 9.94497L9.64631 9.89247L9.71756 9.88497L9.74756 9.82122L9.77756 9.88872L9.84881 9.89997L9.79631 9.94872M16.0888 11.6512L15.9913 11.595L15.8901 11.6475L15.9126 11.535L15.8338 11.4487L15.9463 11.4337L15.9988 11.3325L16.0476 11.4375L16.1601 11.46L16.0738 11.535M15.2938 11.76L15.2113 11.7075L15.1251 11.7525L15.1438 11.655L15.0801 11.5875L15.1738 11.5762L15.2188 11.49L15.2563 11.58L15.3501 11.595L15.2788 11.6625M15.6688 11.7487L15.5938 11.7037L15.5151 11.7412L15.5301 11.655L15.4701 11.5912L15.5563 11.58L15.5976 11.505L15.6351 11.58L15.7213 11.5987L15.6576 11.6587M16.7488 10.8037L16.6738 10.7662L16.5988 10.8037L16.6176 10.7175L16.5576 10.6537L16.6438 10.6425L16.6813 10.5675L16.7188 10.6462L16.7976 10.6612L16.7376 10.7212M15.2826 12.2887L15.1888 12.2362L15.0876 12.2812L15.1101 12.1762L15.0351 12.1012L15.1476 12.09L15.1963 11.9962L15.2413 12.0937L15.3538 12.1125L15.2676 12.1837M15.2901 12.7162L15.2001 12.6637L15.1101 12.7125L15.1326 12.6075L15.0613 12.5325L15.1626 12.5175L15.2076 12.4237L15.2488 12.5212L15.3501 12.54L15.2751 12.615M14.5626 11.7487L14.4913 11.7037L14.4163 11.7412L14.4313 11.6587L14.3751 11.595L14.4576 11.5875L14.4951 11.5125L14.5326 11.5875L14.6151 11.6025L14.5551 11.6625M13.8876 11.7487L13.8126 11.7037L13.7376 11.7412L13.7563 11.6587L13.6963 11.595L13.7826 11.5875L13.8201 11.5125L13.8576 11.5875L13.9363 11.6025L13.8763 11.6625M12.7363 10.74L12.6613 10.6987L12.5863 10.7362L12.6051 10.65L12.5451 10.59L12.6276 10.5787L12.6651 10.5037L12.7026 10.5787L12.7851 10.5975L12.7251 10.6537M12.8638 12.7912L12.8038 12.7575L12.7363 12.7912L12.7513 12.7162L12.7026 12.6637L12.7738 12.6562L12.8076 12.5925L12.8376 12.66L12.9088 12.6712L12.8563 12.72M11.1238 9.47247L10.9738 9.38622L10.8238 9.46122L10.8576 9.29247L10.7376 9.16872L10.9063 9.14622L10.9888 8.99622L11.0601 9.15372L11.2251 9.18372L11.1013 9.29997" fill="#FFFFEF"/>
<path fill-rule="evenodd" clip-rule="evenodd" d="M17.1651 10.7176C17.258 10.4765 17.3308 10.2281 17.3826 9.97506C14.8401 7.74381 12.0089 6.60006 8.43136 6.83631C8.30161 7.08737 8.19492 7.3497 8.11261 7.62006C12.3501 7.21506 15.4626 9.09005 17.1651 10.7176Z" fill="white"/>
<path d="M16.0251 9.46498L16.1113 9.51373C16.0984 9.53919 16.0945 9.56824 16.1001 9.59623C16.1088 9.62336 16.1276 9.64615 16.1526 9.65998C16.1788 9.67873 16.2051 9.68998 16.2276 9.68623C16.2501 9.68623 16.2651 9.67498 16.2763 9.65998C16.2828 9.65002 16.2855 9.63801 16.2838 9.62623C16.2807 9.61237 16.2743 9.59949 16.2651 9.58873C16.2576 9.57748 16.2388 9.55123 16.2088 9.52123C16.178 9.4894 16.1549 9.45091 16.1413 9.40873C16.1319 9.3768 16.1344 9.34257 16.1481 9.31229C16.1619 9.282 16.1861 9.25767 16.2163 9.24373C16.2436 9.23234 16.2737 9.22972 16.3026 9.23623C16.3378 9.24435 16.371 9.25967 16.4001 9.28123C16.4526 9.31873 16.4863 9.35623 16.4976 9.40123C16.5027 9.42227 16.5034 9.44418 16.4995 9.46551C16.4957 9.48683 16.4873 9.5071 16.4751 9.52498L16.3851 9.46873C16.3963 9.44623 16.4001 9.42373 16.3926 9.40498C16.3888 9.38623 16.3738 9.36748 16.3476 9.35248C16.3283 9.33698 16.3047 9.32781 16.2801 9.32623C16.2733 9.326 16.2665 9.32762 16.2606 9.33092C16.2546 9.33423 16.2497 9.33908 16.2463 9.34498C16.2388 9.35623 16.2388 9.36748 16.2426 9.38248C16.2463 9.39748 16.2651 9.42748 16.3026 9.46498C16.3401 9.50248 16.3626 9.53623 16.3776 9.55873C16.3909 9.5833 16.397 9.61121 16.395 9.63912C16.393 9.66704 16.3831 9.6938 16.3663 9.71623C16.3488 9.74172 16.3239 9.76132 16.2951 9.77248C16.2669 9.78542 16.2355 9.78935 16.2051 9.78373C16.1713 9.77623 16.1376 9.76123 16.1001 9.73498C16.0438 9.69748 16.0101 9.65623 15.9988 9.61123C15.9866 9.5602 15.9947 9.50642 16.0213 9.46123L16.0251 9.46498ZM15.5901 9.17998L15.6838 9.22873C15.6722 9.25462 15.6696 9.28366 15.6763 9.31123C15.6859 9.33696 15.7046 9.3583 15.7288 9.37123C15.7588 9.38998 15.7813 9.39748 15.8038 9.39373C15.8263 9.39373 15.8413 9.38248 15.8526 9.36373C15.8582 9.3548 15.8609 9.34427 15.8601 9.33373C15.8601 9.32248 15.8526 9.30748 15.8413 9.29623C15.8221 9.27304 15.8021 9.25052 15.7813 9.22873C15.7401 9.18748 15.7138 9.15373 15.7063 9.12373C15.7002 9.10443 15.6983 9.08402 15.7009 9.06394C15.7035 9.04386 15.7105 9.02458 15.7213 9.00748C15.7356 8.98433 15.7565 8.96604 15.7813 8.95498C15.8071 8.9431 15.8358 8.93918 15.8638 8.94373C15.8985 8.94957 15.9316 8.96232 15.9613 8.98123C16.0176 9.01873 16.0513 9.05623 16.0626 9.09748C16.0694 9.11855 16.0716 9.14086 16.069 9.16287C16.0664 9.18487 16.0591 9.20606 16.0476 9.22498L15.9538 9.17248C15.9651 9.14623 15.9688 9.12748 15.9613 9.10873C15.9538 9.08998 15.9388 9.07123 15.9126 9.05623C15.8918 9.04133 15.8668 9.03345 15.8413 9.03373C15.8351 9.03414 15.8292 9.03607 15.824 9.03934C15.8187 9.04261 15.8144 9.04712 15.8113 9.05248C15.8038 9.06373 15.8038 9.07498 15.8076 9.08998C15.8113 9.10498 15.8338 9.13498 15.8713 9.17248C15.9088 9.20998 15.9351 9.23998 15.9463 9.26248C15.9613 9.28599 15.9693 9.31332 15.9693 9.34123C15.9693 9.36913 15.9613 9.39646 15.9463 9.41998C15.9301 9.44614 15.9067 9.46699 15.8788 9.47998C15.8507 9.49292 15.8192 9.49685 15.7888 9.49123C15.7502 9.4847 15.7133 9.47069 15.6801 9.44998C15.6316 9.42413 15.5942 9.38145 15.5751 9.32998C15.5606 9.27991 15.5659 9.22618 15.5901 9.17998ZM15.0576 9.03748L15.3313 8.58748L15.6613 8.79373L15.6163 8.86873L15.3763 8.71873L15.3163 8.81998L15.5413 8.95873L15.4926 9.03373L15.2676 8.89498L15.1926 9.01873L15.4438 9.16873L15.3988 9.24373L15.0613 9.03748H15.0576ZM14.2813 8.39998L14.3226 8.32498L14.5251 8.42623L14.4313 8.61373C14.4013 8.62123 14.3638 8.62498 14.3188 8.62123C14.2756 8.61646 14.2336 8.60375 14.1951 8.58373C14.1497 8.56162 14.1109 8.528 14.0826 8.48623C14.0568 8.44741 14.0437 8.40155 14.0451 8.35498C14.047 8.30649 14.0598 8.25907 14.0826 8.21623C14.1051 8.17113 14.1386 8.13244 14.1801 8.10373C14.2197 8.07632 14.2669 8.0619 14.3151 8.06248C14.3526 8.06248 14.3901 8.07373 14.4351 8.09998C14.4951 8.12623 14.5326 8.16373 14.5513 8.20498C14.5708 8.24593 14.5748 8.29256 14.5626 8.33623L14.4613 8.30623C14.4675 8.28111 14.4649 8.25462 14.4538 8.23123C14.4426 8.20873 14.4238 8.19373 14.3938 8.17873C14.3763 8.16875 14.3569 8.16258 14.3369 8.16064C14.3168 8.1587 14.2966 8.16103 14.2776 8.16748C14.2401 8.17873 14.2063 8.21248 14.1801 8.26498C14.1538 8.31748 14.1426 8.36623 14.1538 8.40748C14.159 8.42704 14.1684 8.44523 14.1813 8.46078C14.1943 8.47633 14.2105 8.48885 14.2288 8.49748C14.2476 8.50873 14.2701 8.51623 14.2926 8.51623C14.3149 8.51962 14.3377 8.51962 14.3601 8.51623L14.3901 8.45623L14.2813 8.39998ZM10.8988 7.56373L10.9738 7.03873L11.1313 7.06498L11.1726 7.43248L11.3188 7.09498L11.4763 7.11748L11.4013 7.63498L11.3001 7.61998L11.3638 7.21123L11.1988 7.60498L11.0976 7.58998L11.0563 7.16623L10.9963 7.57873L10.8988 7.56373ZM10.3701 7.49998L10.4188 6.97498L10.8051 7.01248L10.7976 7.10248L10.5163 7.07623L10.5051 7.18873L10.7676 7.21498L10.7563 7.30498L10.4938 7.27873L10.4826 7.42123L10.7751 7.44748L10.7676 7.53748L10.3701 7.49998Z" fill="#309E3A"/>
<path d="M8.61878 7.17381C8.61878 7.11756 8.63003 7.07631 8.64503 7.03881C8.65818 7.01214 8.67595 6.98801 8.69753 6.96756C8.71677 6.94816 8.73973 6.93285 8.76503 6.92256C8.80253 6.91131 8.84003 6.90381 8.87753 6.90381C8.95628 6.90381 9.01628 6.93381 9.06503 6.97881C9.08824 7.00747 9.1055 7.04048 9.1158 7.07589C9.1261 7.11131 9.12924 7.14842 9.12503 7.18506C9.12503 7.26756 9.09878 7.33506 9.05003 7.38381C9.02498 7.40696 8.99535 7.4246 8.96305 7.43558C8.93075 7.44657 8.89651 7.45064 8.86253 7.44756C8.82901 7.4479 8.79578 7.44143 8.76483 7.42853C8.73389 7.41564 8.70589 7.3966 8.68253 7.37256C8.63587 7.31733 8.61295 7.24588 8.61878 7.17381Z" fill="#309E3A"/>
<path d="M8.72754 7.17372C8.72754 7.22997 8.73879 7.27497 8.76504 7.30872C8.79129 7.33872 8.82504 7.35747 8.87004 7.35747C8.88951 7.35883 8.90903 7.35584 8.9272 7.3487C8.94536 7.34157 8.96171 7.33047 8.97504 7.31622C9.00129 7.28622 9.01254 7.24122 9.01629 7.17747C9.01629 7.11747 9.00879 7.07247 8.97879 7.04247C8.96657 7.02736 8.95116 7.01514 8.93365 7.00671C8.91614 6.99828 8.89697 6.99384 8.87754 6.99372C8.85781 6.99309 8.83819 6.99679 8.82005 7.00457C8.8019 7.01234 8.78569 7.024 8.77254 7.03872C8.74254 7.06872 8.73129 7.11372 8.72754 7.17372Z" fill="#F7FFFF"/>
<path d="M9.23755 7.44382L9.24505 6.91882H9.47005C9.5263 6.91882 9.5638 6.92632 9.59005 6.93757C9.6163 6.94507 9.63505 6.96382 9.65005 6.98632C9.66505 7.00882 9.67255 7.03882 9.67255 7.07257C9.67284 7.10865 9.65944 7.14349 9.63505 7.17007C9.60733 7.19604 9.57165 7.2119 9.5338 7.21507L9.59005 7.26007C9.60505 7.27507 9.6238 7.30507 9.6463 7.34632L9.71005 7.45132H9.58255L9.50755 7.33132L9.45505 7.25632C9.44596 7.246 9.43432 7.23825 9.4213 7.23382C9.40424 7.22885 9.38657 7.22632 9.3688 7.22632H9.3463V7.44382H9.23755Z" fill="#309E3A"/>
<path d="M9.35004 7.14391H9.42504C9.47754 7.14391 9.51129 7.14391 9.52254 7.13641C9.53379 7.13641 9.54504 7.12516 9.55254 7.11766C9.56004 7.11016 9.56379 7.09141 9.56379 7.08016C9.56379 7.05766 9.56004 7.04266 9.54879 7.03516C9.54129 7.02391 9.52629 7.01641 9.51129 7.01266H9.43629L9.35004 7.00891V7.14016V7.14391Z" fill="white"/>
<path d="M9.8375 6.94495L10.0325 6.9562C10.0737 6.9562 10.1075 6.95995 10.13 6.96745C10.1592 6.97803 10.1851 6.99615 10.205 7.01995C10.2266 7.04616 10.242 7.07693 10.25 7.10995C10.2612 7.1437 10.265 7.18495 10.2612 7.2337C10.2612 7.27197 10.2549 7.30998 10.2425 7.3462C10.2275 7.3837 10.205 7.4137 10.1787 7.4362C10.1569 7.4542 10.1313 7.46702 10.1037 7.4737C10.0812 7.4812 10.0475 7.4812 10.01 7.4812L9.81125 7.46995L9.8375 6.94495Z" fill="#309E3A"/>
<path d="M9.93876 7.03857L9.92001 7.38732H10.0625C10.0813 7.38732 10.0963 7.37982 10.1075 7.36857C10.1188 7.35732 10.13 7.34232 10.1375 7.31982C10.145 7.29732 10.1525 7.26357 10.1525 7.22232L10.1488 7.12857C10.1434 7.1088 10.1331 7.09073 10.1188 7.07607C10.1063 7.06355 10.0908 7.0545 10.0738 7.04982C10.0454 7.04351 10.0165 7.03975 9.98751 7.03857H9.93876Z" fill="white"/>
<path d="M12.41 7.88256L12.5338 7.37256L12.6988 7.41006L12.8188 7.44756C12.845 7.46256 12.8675 7.48506 12.8788 7.51881C12.8938 7.54881 12.8938 7.58256 12.8863 7.62381C12.8788 7.65381 12.8675 7.68006 12.8488 7.69881C12.835 7.71528 12.8178 7.72851 12.7984 7.73759C12.7789 7.74666 12.7577 7.75134 12.7363 7.75131C12.71 7.75131 12.6725 7.74381 12.6238 7.73256L12.56 7.71381L12.515 7.90881L12.41 7.88256Z" fill="#309E3A"/>
<path d="M12.6126 7.48499L12.5826 7.62748L12.6389 7.64249C12.6764 7.64999 12.7064 7.65749 12.7214 7.65374C12.736 7.65171 12.7496 7.64521 12.7603 7.63514C12.7711 7.62507 12.7784 7.61191 12.7814 7.59749C12.7814 7.57874 12.7814 7.56374 12.7739 7.54874C12.7657 7.53349 12.7524 7.52157 12.7364 7.51498L12.6651 7.49623L12.6164 7.48499H12.6126Z" fill="white"/>
<path d="M12.8975 8.02881L13.0738 7.53381L13.28 7.60881C13.3363 7.62756 13.37 7.64631 13.3925 7.66131C13.4113 7.68006 13.4263 7.69881 13.43 7.72881C13.4338 7.75881 13.4375 7.78506 13.43 7.81506C13.415 7.85256 13.3925 7.87881 13.3625 7.89756C13.3325 7.91256 13.295 7.91631 13.25 7.90881C13.265 7.92756 13.28 7.94631 13.2875 7.96881L13.3175 8.07006L13.34 8.18631L13.2238 8.14506L13.1863 8.01006C13.1795 7.97953 13.1707 7.94947 13.16 7.92006C13.155 7.9084 13.1473 7.89811 13.1375 7.89006C13.13 7.87881 13.115 7.87131 13.0888 7.86381L13.07 7.85631L12.995 8.06631L12.8975 8.02881Z" fill="#309E3A"/>
<path d="M13.1001 7.77756L13.1713 7.80381C13.2201 7.82256 13.2501 7.83006 13.2651 7.83006C13.2763 7.83006 13.2876 7.83006 13.2988 7.81881C13.3101 7.81131 13.3176 7.80006 13.3213 7.78506C13.3288 7.77006 13.3288 7.75506 13.3213 7.74006C13.3158 7.72552 13.3051 7.71352 13.2913 7.70631L13.2163 7.68006L13.1413 7.65381L13.0963 7.77756H13.1001Z" fill="white"/>
<path d="M13.5126 8.01C13.5254 7.96609 13.5471 7.92526 13.5763 7.89C13.5953 7.86737 13.6181 7.84832 13.6438 7.83375C13.667 7.82061 13.6924 7.81173 13.7188 7.8075C13.7563 7.8075 13.7938 7.8075 13.8351 7.8225C13.8686 7.83079 13.9 7.84611 13.9271 7.86744C13.9543 7.88878 13.9766 7.91564 13.9926 7.94624C14.0226 8.00624 14.0226 8.0775 14.0001 8.16C13.9815 8.23087 13.9357 8.29153 13.8726 8.32875C13.8163 8.3625 13.7488 8.36625 13.6776 8.34375C13.6441 8.33523 13.6128 8.31983 13.5857 8.29851C13.5586 8.2772 13.5362 8.25046 13.5201 8.22C13.505 8.18721 13.4966 8.15178 13.4954 8.11574C13.4941 8.07971 13.4999 8.04377 13.5126 8.01Z" fill="#309E3A"/>
<path d="M13.6177 8.04013C13.6027 8.09638 13.5989 8.14513 13.6177 8.18263C13.6364 8.22013 13.6627 8.24263 13.7039 8.25763C13.7414 8.26888 13.7789 8.26513 13.8164 8.24263C13.8539 8.22388 13.8764 8.18263 13.8952 8.12263C13.9139 8.06638 13.9139 8.02138 13.8952 7.98388C13.8878 7.96609 13.8765 7.95015 13.8623 7.93718C13.848 7.92422 13.8311 7.91456 13.8127 7.90888C13.7942 7.90251 13.7746 7.90022 13.7552 7.90216C13.7358 7.9041 13.717 7.91023 13.7002 7.92013C13.6627 7.94263 13.6364 7.98013 13.6177 8.04013Z" fill="white"/>
<path d="M14.5363 8.74125L14.7763 8.27625L14.9751 8.3775C15.0125 8.39547 15.0467 8.41955 15.0763 8.44875C15.0951 8.4675 15.1063 8.49 15.1063 8.52C15.1063 8.55 15.1063 8.57625 15.0913 8.6025C15.0769 8.63621 15.05 8.66308 15.0163 8.6775C14.9788 8.685 14.9413 8.685 14.9001 8.67C14.9151 8.6925 14.9226 8.715 14.9301 8.73375C14.9376 8.75625 14.9413 8.79 14.9451 8.83875L14.9526 8.95875L14.8401 8.9025L14.8251 8.76375C14.8233 8.73229 14.8195 8.70098 14.8138 8.67C14.8113 8.65597 14.8048 8.64296 14.7951 8.6325L14.7501 8.60625L14.7313 8.595L14.6301 8.79L14.5363 8.74125Z" fill="#309E3A"/>
<path d="M14.7687 8.5199L14.84 8.5574C14.885 8.5799 14.915 8.5949 14.9262 8.5949C14.9375 8.5949 14.9525 8.5949 14.9637 8.5874C14.975 8.58365 14.9825 8.5724 14.99 8.5574C14.9975 8.5424 15.0012 8.5274 14.9975 8.5124C14.9928 8.49747 14.9837 8.48436 14.9712 8.4749C14.9493 8.46143 14.9267 8.44892 14.9037 8.4374L14.8287 8.3999L14.7687 8.5199Z" fill="white"/>
<path d="M16.4788 9.70134C16.5031 9.66278 16.535 9.6296 16.5726 9.60384C16.5978 9.58769 16.6257 9.57625 16.6551 9.57009C16.6823 9.56453 16.7103 9.56453 16.7376 9.57009C16.7751 9.57759 16.8088 9.59258 16.8426 9.61508C16.8717 9.63326 16.8968 9.65733 16.9162 9.68574C16.9356 9.71414 16.9488 9.74628 16.9551 9.78008C16.9663 9.84383 16.9476 9.91508 16.9026 9.98633C16.8649 10.0483 16.8042 10.0928 16.7338 10.1101C16.7002 10.1173 16.6655 10.1174 16.6319 10.1103C16.5983 10.1032 16.5666 10.0891 16.5388 10.0688C16.5096 10.0507 16.4846 10.0266 16.4652 9.99819C16.4458 9.96978 16.4326 9.93764 16.4263 9.90384C16.4151 9.83634 16.4338 9.76884 16.4788 9.70134Z" fill="#309E3A"/>
<path d="M16.5726 9.76126C16.5351 9.81001 16.5239 9.85501 16.5314 9.89626C16.5341 9.91526 16.5409 9.93344 16.5513 9.94961C16.5616 9.96578 16.5753 9.97955 16.5914 9.99001C16.6289 10.0163 16.6664 10.0238 16.7039 10.0125C16.7414 10.0013 16.7789 9.97501 16.8126 9.92251C16.8464 9.87001 16.8614 9.82501 16.8539 9.78751C16.8501 9.75001 16.8276 9.71626 16.7939 9.69001C16.7601 9.66376 16.7189 9.66001 16.6814 9.67126C16.6439 9.67876 16.6064 9.70876 16.5689 9.76126H16.5726Z" fill="white"/>
<path d="M11.8175 7.66877L11.9038 7.30127L12.1738 7.36502L12.1625 7.42502L11.9638 7.38002L11.945 7.46252L12.1288 7.50377L12.1138 7.56752L11.93 7.52252L11.9075 7.62377L12.1138 7.67252L12.0988 7.73252L11.8175 7.66877Z" fill="#309E3A"/>
</g>
<defs>
<clipPath id="clip0_351_4409">
<rect width="24" height="18" fill="white" transform="translate(0.5)"/>
</clipPath>
</defs>
</svg>
