<svg width="20" height="20" viewBox="0 0 20 20" fill="none" xmlns="http://www.w3.org/2000/svg">
<path d="M12.1818 17.2727H13.6364V16.5455H15.0909V15.8182H15.8182V15.0909H16.5455V13.6364H17.2727V12.1818H18V7.81818H17.2727V6.36364H16.5455V4.90909H15.8182V4.18182H15.0909V3.45455H13.6364V2.72727H12.1818V2H7.81818V2.72727H6.36364V3.45455H4.90909V4.18182H4.18182V4.90909H3.45455V6.36364H2.72727V7.81818H2V12.1818H2.72727V13.6364H3.45455V15.0909H4.18182V15.8182H4.90909V16.5455H6.36364V17.2727H7.81818V18H12.1818V17.2727ZM7.81818 16.5455V15.8182H6.36364V15.0909H4.90909V13.6364H4.18182V12.1818H3.45455V7.81818H4.18182V6.36364H4.90909V4.90909H6.36364V4.18182H7.81818V3.45455H12.1818V4.18182H13.6364V4.90909H15.0909V6.36364H15.8182V7.81818H16.5455V12.1818H15.8182V13.6364H15.0909V15.0909H13.6364V15.8182H12.1818V16.5455H7.81818Z" fill="#1A1B1E"/>
<path d="M10.7273 13.6364H9.27274V12.9091H8.54547V12.1818H7.81819V11.4545H7.09092V10.7273H6.36365V10H9.27274V5.63637H10.7273V10H13.6364V10.7273H12.9091V11.4545H12.1818V12.1818H11.4546V12.9091H10.7273V13.6364Z" fill="#1A1B1E"/>
</svg>
