<svg width="24" height="18" viewBox="0 0 24 18" fill="none" xmlns="http://www.w3.org/2000/svg">
<g clip-path="url(#clip0_351_1912)">
<mask id="mask0_351_1912" style="mask-type:luminance" maskUnits="userSpaceOnUse" x="0" y="0" width="24" height="18">
<path d="M0 0H24V18H0V0Z" fill="white"/>
</mask>
<g mask="url(#mask0_351_1912)">
<path fill-rule="evenodd" clip-rule="evenodd" d="M0 0H34.1983V1.38516H0V0ZM0 2.77031H34.1983V4.15547H0V2.77031ZM0 5.53711H34.1983V6.92578H0V5.53711ZM0 8.30742H34.1983V9.69258H0V8.30742ZM0 11.0777H34.1983V12.4629H0V11.0777ZM0 13.8445H34.1983V15.2297H0V13.8445ZM0 16.6148H34.1983V18H0V16.6148Z" fill="#BD3D44"/>
<path fill-rule="evenodd" clip-rule="evenodd" d="M9.72748e-05 1.38513H34.1984V2.77029H9.72748e-05V1.38513ZM9.72748e-05 4.15544H34.1984V5.53709H9.72748e-05V4.15544ZM9.72748e-05 6.92224H34.1984V8.3074H9.72748e-05V6.92224ZM9.72748e-05 9.69255H34.1984V11.0777H9.72748e-05V9.69255ZM9.72748e-05 12.4629H34.1984V13.848H9.72748e-05V12.4629ZM9.72748e-05 15.2297H34.1984V16.6148H9.72748e-05V15.2297Z" fill="white"/>
<path fill-rule="evenodd" clip-rule="evenodd" d="M0 0H13.6786V9.69258H0V0Z" fill="#192F5D"/>
<path fill-rule="evenodd" clip-rule="evenodd" d="M1.13916 0.414917L1.26572 0.79812H1.66648L1.34306 1.03367L1.4661 1.42039L1.13916 1.18132L0.815738 1.41687L0.938778 1.03367L0.611841 0.79812H1.01963L1.13916 0.414917ZM3.42069 0.414917L3.54373 0.79812H3.94801L3.62107 1.03367L3.74411 1.42039L3.42069 1.18132L3.09375 1.41687L3.21679 1.03367L2.89337 0.79812H3.29413L3.42069 0.414917ZM5.6987 0.414917L5.82526 0.79812H6.22251L5.89908 1.03367L6.02212 1.42039L5.69519 1.18132L5.37177 1.41687L5.49481 1.03367L5.16787 0.79812H5.57215L5.6987 0.414917ZM7.98023 0.414917L8.10327 0.79812H8.50755L8.18061 1.03367L8.30717 1.42039L7.98023 1.18132L7.6533 1.41687L7.77985 1.03367L7.45291 0.79812H7.85368L7.98023 0.414917ZM10.2582 0.414917L10.3848 0.79812H10.7856L10.4621 1.03367L10.5852 1.42039L10.2582 1.18132L9.93482 1.41687L10.0579 1.03367L9.73444 0.79812H10.1352L10.2582 0.414917ZM12.5398 0.414917L12.6628 0.79812H13.0671L12.7402 1.03367L12.8667 1.42039L12.5398 1.18132L12.2128 1.41687L12.3394 1.03367L12.0125 0.79812H12.4167L12.5398 0.414917ZM2.28168 1.38523L2.40472 1.76843H2.809L2.48206 2.00398L2.60159 2.38718L2.2852 2.15164L1.95826 2.38718L2.07427 2.00398L1.75788 1.76843H2.15864L2.28168 1.38523ZM4.5597 1.38523L4.68625 1.76843H5.08701L4.76008 2.00398L4.88663 2.38718L4.5597 2.15164L4.23276 2.38718L4.35931 2.00398L4.03238 1.76843H4.43665L4.5597 1.38523ZM6.84123 1.38523L6.96427 1.76843H7.36854L7.04161 2.00398L7.16465 2.38718L6.84123 2.15164L6.51429 2.38718L6.63733 2.00398L6.31391 1.76843H6.71467L6.84123 1.38523ZM9.11924 1.38523L9.2458 1.76843H9.64656L9.31962 2.00398L9.44618 2.38718L9.11924 2.15164L8.79582 2.38718L8.91886 2.00398L8.59192 1.76843H8.99971L9.11924 1.38523ZM11.4008 1.38523L11.5238 1.76843H11.9281L11.6011 2.00398L11.7242 2.38718L11.4008 2.15164L11.0738 2.38718L11.1969 2.00398L10.8735 1.76843H11.2742L11.4008 1.38523ZM1.13916 2.35203L1.26572 2.74226H1.66648L1.34306 2.97781L1.4661 3.36101L1.13916 3.12195L0.815738 3.36101L0.938778 2.97429L0.611841 2.73874H1.01963L1.13916 2.35203ZM3.42069 2.35203L3.54373 2.73874H3.94801L3.62107 2.97429L3.74411 3.3575L3.42069 3.11843L3.09375 3.3575L3.21679 2.97078L2.89337 2.73523H3.29413L3.42069 2.35203ZM5.6987 2.35203L5.82526 2.73874H6.22251L5.89908 2.97429L6.02212 3.3575L5.69519 3.11843L5.37177 3.3575L5.49481 2.97078L5.16787 2.73523H5.57215L5.6987 2.35203ZM7.98023 2.35203L8.10327 2.73874H8.50755L8.18061 2.97429L8.30717 3.3575L7.98023 3.11843L7.6533 3.3575L7.77985 2.97078L7.45291 2.73523H7.85368L7.98023 2.35203ZM10.2582 2.35203L10.3848 2.73874H10.7856L10.4621 2.97429L10.5852 3.3575L10.2582 3.11843L9.93482 3.3575L10.0579 2.97078L9.73444 2.73523H10.1352L10.2582 2.35203ZM12.5398 2.35203L12.6628 2.73874H13.0671L12.7402 2.97429L12.8667 3.3575L12.5398 3.11843L12.2128 3.3575L12.3394 2.97078L12.0125 2.73523H12.4167L12.5398 2.35203ZM2.28168 3.32234L2.40472 3.70554H2.809L2.48206 3.94109L2.6051 4.32781L2.28168 4.08875L1.95474 4.32429L2.07779 3.94109L1.75436 3.70554H2.15513L2.28168 3.32234ZM4.5597 3.32234L4.68625 3.70554H5.08701L4.76008 3.94109L4.88663 4.32781L4.5597 4.08875L4.23276 4.32429L4.35931 3.94109L4.03238 3.70554H4.43665L4.5597 3.32234ZM6.84123 3.32234L6.96427 3.70554H7.36854L7.04161 3.94109L7.16465 4.32781L6.84123 4.08875L6.51429 4.32429L6.63733 3.94109L6.31391 3.70554H6.71467L6.84123 3.32234ZM9.11924 3.32234L9.2458 3.70554H9.64656L9.32314 3.94109L9.44618 4.32781L9.11924 4.08875L8.79582 4.32429L8.91886 3.94109L8.59192 3.70554H8.99971L9.11924 3.32234ZM11.4008 3.32234L11.5238 3.70554H11.9281L11.6011 3.94109L11.7242 4.32781L11.4008 4.08875L11.0738 4.32429L11.1969 3.94109L10.8735 3.70554H11.2742L11.4008 3.32234ZM1.13916 4.29265L1.26572 4.67585H1.66648L1.34306 4.9114L1.4661 5.29812L1.13916 5.05906L0.815738 5.2946L0.938778 4.9114L0.611841 4.67585H1.01963L1.13916 4.29265ZM3.42069 4.29265L3.54373 4.67585H3.94801L3.62107 4.9114L3.74411 5.2946L3.42069 5.05906L3.09375 5.2946L3.21679 4.9114L2.89337 4.67585H3.29413L3.42069 4.29265ZM5.6987 4.29265L5.82526 4.67585H6.22251L5.89908 4.9114L6.02212 5.29812L5.69519 5.05906L5.37177 5.2946L5.49481 4.9114L5.16787 4.67585H5.57215L5.6987 4.29265ZM7.98023 4.29265L8.10327 4.67585H8.50755L8.18061 4.9114L8.30717 5.29812L7.98023 5.05906L7.6533 5.2946L7.77985 4.9114L7.45291 4.67585H7.85368L7.98023 4.29265ZM10.2582 4.29265L10.3848 4.67585H10.7856L10.4621 4.9114L10.5852 5.29812L10.2582 5.05906L9.93482 5.2946L10.0579 4.9114L9.73444 4.67585H10.1352L10.2582 4.29265ZM12.5398 4.29265L12.6628 4.67585H13.0671L12.7402 4.9114L12.8667 5.29812L12.5398 5.05906L12.2128 5.2946L12.3394 4.9114L12.0125 4.67585H12.4167L12.5398 4.29265ZM2.28168 5.26296L2.40472 5.64617H2.809L2.48206 5.88171L2.6051 6.26492L2.28168 6.02585L1.95474 6.26492L2.07779 5.8782L1.75436 5.64265H2.15513L2.28168 5.26296ZM4.5597 5.26296L4.68625 5.64617H5.08701L4.76008 5.88171L4.88663 6.26492L4.5597 6.02585L4.23276 6.26492L4.35931 5.8782L4.03238 5.64265H4.43665L4.5597 5.26296ZM6.84123 5.26296L6.96427 5.64617H7.36854L7.04161 5.88171L7.16465 6.26492L6.84123 6.02585L6.51429 6.26492L6.63733 5.8782L6.31391 5.64265H6.71467L6.84123 5.26296ZM9.11924 5.26296L9.2458 5.64617H9.64656L9.32314 5.88171L9.44618 6.26492L9.11924 6.02585L8.79582 6.26492L8.91886 5.8782L8.59192 5.64265H8.99971L9.11924 5.26296ZM11.4008 5.26296L11.5238 5.64617H11.9281L11.6011 5.88171L11.7242 6.26492L11.4008 6.02585L11.0738 6.26492L11.1969 5.8782L10.8735 5.64265H11.2742L11.4008 5.26296ZM1.13916 6.22976L1.26572 6.61648H1.66648L1.34306 6.85203L1.4661 7.23171L1.13916 6.99617L0.815738 7.23171L0.938778 6.84851L0.611841 6.61296H1.01963L1.13916 6.22976ZM3.42069 6.22976L3.54373 6.61648H3.94801L3.62107 6.85203L3.74763 7.23171L3.42069 6.99617L3.09375 7.23171L3.22031 6.84851L2.89337 6.61296H3.29413L3.42069 6.22976ZM5.6987 6.22976L5.82526 6.61648H6.22251L5.89908 6.85203L6.02212 7.23171L5.69519 6.99617L5.37177 7.23171L5.49481 6.84851L5.16787 6.61296H5.57215L5.6987 6.22976ZM7.98023 6.22976L8.10327 6.61648H8.50755L8.18061 6.85203L8.30717 7.23171L7.98023 6.99617L7.6533 7.23171L7.77985 6.84851L7.45291 6.61296H7.85368L7.98023 6.22976ZM10.2582 6.22976L10.3848 6.61648H10.7856L10.4621 6.85203L10.5852 7.23171L10.2582 6.99617L9.93482 7.23171L10.0579 6.84851L9.73444 6.61296H10.1352L10.2582 6.22976ZM12.5398 6.22976L12.6628 6.61648H13.0671L12.7402 6.85203L12.8667 7.23171L12.5398 6.99617L12.2128 7.23171L12.3394 6.84851L12.0125 6.61296H12.4167L12.5398 6.22976ZM2.28168 7.20007L2.40472 7.58328H2.809L2.48206 7.81882L2.6051 8.20554L2.28168 7.96648L1.95474 8.20203L2.07779 7.81882L1.75436 7.58328H2.15513L2.28168 7.20007ZM4.5597 7.20007L4.68625 7.58328H5.08701L4.76008 7.81882L4.88663 8.20554L4.5597 7.96648L4.23276 8.20203L4.35931 7.81882L4.03238 7.58328H4.43665L4.5597 7.20007ZM6.84123 7.20007L6.96427 7.58328H7.36854L7.04161 7.81882L7.16465 8.20554L6.84123 7.96648L6.51429 8.20203L6.63733 7.81882L6.31391 7.58328H6.71467L6.84123 7.20007ZM9.11924 7.20007L9.2458 7.58328H9.64656L9.32314 7.81882L9.44618 8.20554L9.11924 7.96648L8.79582 8.20203L8.91886 7.81882L8.59192 7.58328H8.99971L9.11924 7.20007ZM11.4008 7.20007L11.5238 7.58328H11.9281L11.6011 7.81882L11.7242 8.20554L11.4008 7.96648L11.0738 8.20203L11.1969 7.81882L10.8735 7.58328H11.2742L11.4008 7.20007ZM1.13916 8.17039L1.26572 8.55359H1.66648L1.34306 8.78914L1.4661 9.17234L1.13916 8.93679L0.815738 9.17234L0.938778 8.78562L0.611841 8.55007H1.01963L1.13916 8.17039ZM3.42069 8.17039L3.54373 8.55359H3.94801L3.62107 8.78914L3.74763 9.17234L3.42069 8.93679L3.09375 9.17234L3.22031 8.78562L2.89337 8.55007H3.29413L3.42069 8.17039ZM5.6987 8.17039L5.82526 8.55359H6.22251L5.90611 8.78914L6.02916 9.17234L5.70222 8.93679L5.3788 9.17234L5.50184 8.78562L5.1749 8.55007H5.57918L5.6987 8.17039ZM7.98023 8.17039L8.10327 8.55359H8.50755L8.18061 8.78914L8.30717 9.17234L7.98023 8.93679L7.6533 9.17234L7.77985 8.78562L7.45291 8.55007H7.85368L7.98023 8.17039ZM10.2582 8.17039L10.3848 8.55359H10.7856L10.4621 8.78914L10.5852 9.17234L10.2582 8.93679L9.93482 9.17234L10.0579 8.78562L9.73444 8.55007H10.1352L10.2582 8.17039ZM12.5398 8.17039L12.6628 8.55359H13.0671L12.7402 8.78914L12.8667 9.17234L12.5398 8.93679L12.2128 9.17234L12.3394 8.78562L12.0125 8.55007H12.4167L12.5398 8.17039Z" fill="white"/>
</g>
</g>
<defs>
<clipPath id="clip0_351_1912">
<rect width="24" height="18" fill="white"/>
</clipPath>
</defs>
</svg>
