<svg width="20" height="20" viewBox="0 0 20 20" fill="none" xmlns="http://www.w3.org/2000/svg">
<path d="M17.5 7.95455V12.0455H16.8182V13.4091H16.1364V14.7727H15.4545V15.4545H14.7727V16.1364H14.0909V16.8182H12.7273V17.5H12.0455V14.0909H11.3636V13.4091H12.0455V12.7273H13.4091V12.0455H14.0909V11.3636H14.7727V7.95455H14.0909V5.90909H12.7273V6.59091H12.0455V7.27273H11.3636V6.59091H8.63636V7.27273H7.95455V6.59091H7.27273V5.90909H5.90909V7.95455H5.22727V11.3636H5.90909V12.0455H6.59091V12.7273H7.95455V14.0909H6.59091V13.4091H5.90909V12.7273H4.54545V13.4091H5.22727V14.7727H5.90909V15.4545H7.95455V17.5H7.27273V16.8182H5.90909V16.1364H5.22727V15.4545H4.54545V14.7727H3.86364V13.4091H3.18182V12.0455H2.5V7.95455H3.18182V6.59091H3.86364V5.22727H4.54545V4.54545H5.22727V3.86364H6.59091V3.18182H7.95455V2.5H12.0455V3.18182H13.4091V3.86364H14.7727V4.54545H15.4545V5.22727H16.1364V6.59091H16.8182V7.95455H17.5Z" fill="#1A1B1E"/>
</svg>
